<?xml version="1.0" standalone="no"?>
<!DOCTYPE svg PUBLIC "-//W3C//DTD SVG 20010904//EN"
 "http://www.w3.org/TR/2001/REC-SVG-20010904/DTD/svg10.dtd">
<svg version="1.0" xmlns="http://www.w3.org/2000/svg"
 width="500.000000pt" height="500.000000pt" viewBox="0 0 500.000000 500.000000"
 preserveAspectRatio="xMidYMid meet">
<metadata>
Created by potrace 1.14, written by Peter Selinger 2001-2017
</metadata>
<g transform="translate(0.000000,500.000000) scale(0.100000,-0.100000)"
fill="#000000" stroke="none">
<path d="M2070 3159 c0 -5 -5 -7 -10 -4 -6 3 -43 -5 -83 -19 -39 -14 -90 -28
-112 -31 -71 -9 -155 -11 -155 -3 0 10 -214 11 -224 1 -3 -4 -14 -8 -24 -10
-36 -8 -42 -9 -48 -16 -4 -4 -13 -7 -19 -7 -7 0 -30 -8 -51 -17 -22 -9 -42
-16 -46 -15 -5 1 -8 -2 -8 -8 0 -5 -6 -10 -14 -10 -8 0 -40 -13 -71 -30 -31
-16 -61 -27 -66 -24 -5 3 -9 1 -9 -4 0 -7 -41 -32 -60 -37 -29 -7 -235 -133
-278 -170 -48 -42 -196 -197 -197 -205 0 -8 -59 -85 -67 -88 -5 -2 -8 -8 -8
-13 0 -6 -5 -15 -10 -22 -19 -21 -79 -117 -74 -117 5 0 -8 -17 -39 -51 -9 -10
-14 -19 -11 -19 4 0 -5 -11 -20 -25 -14 -13 -26 -28 -26 -32 0 -5 -49 -58
-110 -118 -60 -60 -110 -115 -110 -121 0 -7 -6 -14 -13 -17 -10 -4 -47 -95
-53 -132 -1 -5 -3 -12 -4 -15 -4 -9 -11 -54 -16 -106 -4 -37 -2 -53 9 -62 19
-16 148 -39 257 -46 30 -2 55 -5 55 -6 0 -3 222 -9 365 -11 91 -2 255 6 265
12 6 4 34 6 63 5 29 -1 55 1 58 5 2 4 23 8 47 8 44 0 102 9 127 18 8 3 27 5
43 4 15 -2 27 2 27 8 0 6 15 8 35 6 19 -3 35 -1 35 3 0 4 12 8 28 9 15 1 61 9
102 18 41 9 85 17 98 17 12 0 22 4 22 8 0 5 8 7 18 5 9 -1 22 0 27 4 6 3 19 6
30 6 11 0 25 3 30 7 6 3 28 9 50 13 45 9 54 12 58 15 1 1 9 3 17 5 8 2 23 6
32 10 18 7 45 -29 29 -39 -5 -3 -12 -29 -16 -56 -4 -28 -11 -50 -16 -50 -4 0
-6 -6 -3 -14 3 -8 0 -17 -5 -21 -6 -3 -9 -11 -6 -16 4 -5 1 -9 -4 -9 -6 0 -11
-7 -11 -16 0 -9 -10 -33 -22 -53 -24 -38 -27 -48 -33 -99 -4 -28 2 -39 34 -70
55 -53 69 -63 75 -54 2 4 1 14 -5 22 -5 8 -9 18 -9 22 0 9 58 -21 104 -54 21
-15 45 -28 53 -28 20 0 16 47 -8 71 -11 11 -19 22 -17 25 7 6 90 -27 121 -49
l27 -18 0 25 c0 36 -46 78 -86 78 -20 0 -44 10 -65 28 -33 27 -33 27 -19 69 7
22 17 41 22 41 5 0 6 5 3 10 -3 6 1 13 9 16 9 3 16 11 16 18 0 6 16 31 35 55
19 24 35 50 35 57 0 8 4 14 9 14 5 0 8 11 5 25 -2 14 0 25 5 25 5 0 8 22 6 48
-3 45 -8 53 -63 106 -90 85 -138 195 -140 316 0 37 1 40 8 20 4 -14 8 -40 9
-57 1 -18 5 -33 11 -33 5 0 9 -3 8 -7 -3 -13 36 -87 54 -104 10 -9 18 -21 18
-26 0 -10 55 -63 65 -63 6 0 24 -14 57 -43 11 -10 22 -16 25 -13 3 2 15 -4 26
-15 12 -11 32 -22 44 -25 13 -4 23 -10 23 -15 0 -4 9 -6 20 -4 11 2 20 0 20
-6 0 -5 6 -9 14 -9 8 0 27 -5 43 -11 26 -11 43 -14 118 -23 17 -1 37 -6 45 -9
8 -3 87 -4 175 -2 182 4 236 7 250 16 6 4 27 5 48 4 20 -2 37 0 37 4 0 4 33
13 73 20 71 11 100 18 105 21 1 2 5 3 10 4 4 1 21 5 38 10 29 6 94 72 94 93 0
5 9 15 20 23 11 8 20 18 20 23 0 16 38 58 44 48 3 -5 3 -11 -1 -13 -11 -4 -83
-173 -83 -192 0 -8 -6 -21 -13 -28 -7 -7 -12 -20 -12 -28 1 -8 -1 -19 -4 -25
-7 -13 -11 -31 -18 -73 -5 -33 13 -92 28 -92 5 0 9 -6 9 -13 0 -14 60 -73 60
-60 0 5 4 2 8 -5 5 -7 28 -22 53 -35 40 -20 44 -25 47 -64 2 -24 5 -43 8 -43
19 0 54 36 54 56 0 12 5 26 10 29 6 3 10 2 10 -2 0 -8 43 -28 64 -30 5 -1 13
-9 18 -18 7 -12 13 -13 23 -5 15 12 11 18 -53 84 l-33 33 33 -2 c18 -2 34 -4
36 -5 1 -1 6 -3 11 -4 5 0 21 -13 35 -29 27 -29 59 -40 36 -12 -7 8 -9 15 -4
15 5 0 4 4 -1 8 -6 4 -16 19 -22 35 -7 15 -19 27 -28 27 -8 0 -15 4 -15 9 0 5
-15 8 -32 7 -18 -1 -51 7 -73 18 -22 11 -46 21 -53 22 -16 3 -55 42 -70 70
-11 21 0 98 18 120 6 6 7 14 3 17 -3 4 -1 7 5 7 7 0 12 6 12 14 0 7 11 30 25
50 13 20 22 36 20 36 -3 0 17 21 43 47 29 30 76 62 123 83 75 36 75 36 66 65
-14 41 -22 44 -70 28 -67 -22 -88 -35 -113 -73 l-24 -35 0 43 c0 26 5 42 12
42 8 0 9 3 2 10 -6 6 -34 6 -79 0 -39 -6 -83 -12 -100 -14 -16 -2 -30 -5 -30
-6 0 -2 -11 -3 -25 -4 -14 -1 -30 -5 -36 -8 -6 -4 -53 -10 -104 -14 l-93 -7
29 38 c32 43 72 85 80 85 3 0 24 16 47 35 22 19 47 35 54 35 7 0 13 4 13 10 0
5 16 18 36 27 41 20 48 37 18 41 -39 5 -94 26 -94 34 0 5 -25 -4 -55 -20 -30
-17 -57 -26 -60 -22 -3 5 3 13 12 19 10 6 14 11 9 11 -5 0 1 11 14 25 22 23
22 25 4 25 -24 -1 -109 -44 -109 -56 0 -5 -8 -20 -18 -34 l-17 -24 0 27 c0 15
5 27 12 27 6 0 8 3 5 6 -4 4 2 19 13 34 11 16 20 34 20 42 0 10 -2 10 -10 -2
-5 -8 -12 -11 -16 -8 -3 4 -13 1 -21 -7 -8 -8 -23 -15 -33 -15 -10 0 -21 -4
-24 -9 -3 -5 -16 -7 -28 -3 -16 4 -19 2 -13 -8 5 -8 4 -11 -3 -6 -6 3 -18 -1
-26 -10 -10 -9 -16 -11 -16 -4 0 15 85 100 100 100 15 0 44 29 37 36 -3 4 -12
2 -19 -2 -7 -5 -20 -9 -28 -10 -8 0 -22 -4 -30 -7 -8 -4 -24 -5 -35 -3 -11 2
-25 -1 -32 -6 -7 -6 -18 -8 -24 -6 -7 2 12 21 42 43 50 36 57 60 9 35 -11 -6
-24 -8 -29 -6 -5 3 -22 -1 -37 -9 -15 -8 -30 -13 -31 -11 -9 9 52 109 68 113
11 3 19 8 19 12 0 6 21 11 63 14 9 1 17 4 17 8 0 9 229 8 235 -1 2 -3 22 -5
44 -4 23 1 41 -3 41 -8 0 -6 11 -8 25 -6 14 3 25 2 25 -2 0 -12 150 -35 200
-31 11 1 12 3 2 14 -7 6 -16 12 -20 12 -5 0 -20 12 -35 27 -24 24 -31 26 -55
17 -31 -12 -102 -17 -102 -7 0 4 -15 8 -32 10 -32 3 -42 19 -16 24 52 9 70 15
89 28 l22 15 -27 11 c-15 5 -33 7 -39 3 -17 -11 -167 -11 -167 0 0 5 7 7 15 3
8 -3 15 -2 15 3 0 5 20 12 45 15 29 5 45 12 45 22 0 8 -3 13 -7 13 -16 -3 -93
14 -93 20 0 10 -60 44 -60 34 0 -4 -4 -3 -8 2 -9 13 -184 100 -194 97 -5 -1
-8 3 -8 8 0 6 -8 10 -17 10 -10 0 -33 9 -50 20 -18 11 -33 16 -33 12 0 -4 -4
-2 -8 3 -9 13 -93 51 -104 47 -5 -1 -8 3 -8 9 0 5 -4 7 -10 4 -5 -3 -10 -1
-10 6 0 6 -8 9 -20 6 -11 -3 -20 -1 -20 3 0 7 -73 29 -107 32 -7 1 -13 5 -13
9 0 4 -16 6 -35 5 -20 -2 -38 1 -41 5 -7 11 -81 12 -88 1 -6 -10 -83 -9 -92 1
-4 4 -15 7 -24 7 -10 0 -35 8 -56 17 -22 9 -46 17 -54 18 -8 0 -20 3 -25 7 -6
4 -23 5 -38 4 -15 -2 -27 1 -27 5 0 5 -22 9 -50 9 -29 0 -50 -5 -50 -11z m138
-60 c12 -2 22 -7 22 -11 0 -4 3 -7 8 -6 4 1 34 -6 67 -16 33 -10 67 -19 75
-19 8 0 20 -3 25 -7 9 -7 70 -6 70 0 0 2 26 4 58 5 31 1 57 -2 57 -7 0 -5 6
-8 13 -7 14 3 53 -7 122 -29 28 -9 53 -16 57 -17 3 0 10 -3 14 -7 4 -5 15 -8
25 -8 10 0 25 -8 35 -17 10 -10 19 -17 21 -15 2 2 34 -12 71 -30 37 -18 70
-31 75 -30 4 1 7 -3 7 -9 0 -6 6 -9 14 -6 8 3 16 3 18 -1 3 -7 72 -41 86 -43
4 0 14 -6 22 -14 8 -7 25 -16 38 -19 12 -4 22 -12 22 -17 0 -6 -5 -7 -10 -4
-6 4 -16 2 -23 -3 -7 -5 -19 -9 -27 -10 -15 0 -205 -30 -250 -39 -14 -2 -40
-5 -57 -5 -18 0 -33 -4 -33 -8 0 -4 -44 -13 -97 -20 -54 -7 -102 -15 -108 -18
-5 -3 -21 -7 -35 -9 -14 -1 -36 -5 -50 -8 -14 -3 -55 -11 -92 -17 -38 -6 -68
-14 -68 -17 0 -4 -12 -6 -27 -5 -16 1 -33 -2 -39 -7 -6 -5 -20 -7 -32 -4 -12
2 -22 1 -22 -3 0 -4 -8 -8 -17 -9 -10 -1 -36 -6 -58 -12 -40 -12 -79 -21 -102
-25 -7 -1 -15 -5 -19 -8 -3 -4 -12 -4 -20 -1 -8 3 -14 1 -14 -4 0 -5 -28 -15
-62 -22 -71 -14 -93 -19 -93 -21 0 -1 -7 -3 -15 -5 -24 -5 -133 -36 -150 -42
-8 -4 -22 -7 -30 -8 -8 -1 -26 -6 -40 -12 -14 -6 -41 -14 -60 -18 -19 -4 -41
-12 -47 -17 -7 -6 -13 -8 -13 -5 0 3 -16 -1 -35 -9 -19 -8 -36 -14 -37 -13 -5
2 -93 -25 -98 -31 -3 -3 -9 -6 -15 -7 -5 -1 -35 -12 -65 -23 -30 -12 -62 -23
-70 -25 -8 -2 -16 -4 -17 -5 -2 -2 -6 -3 -10 -4 -27 -6 -90 -30 -100 -39 -7
-5 -13 -6 -13 -1 0 4 -5 3 -11 -3 -6 -6 -18 -9 -25 -6 -8 3 -14 1 -14 -4 0 -5
-23 -16 -50 -23 -28 -7 -50 -17 -50 -22 0 -4 -3 -7 -8 -5 -9 2 -68 -22 -167
-69 -38 -18 -74 -33 -80 -34 -5 -1 -17 -8 -25 -15 -17 -15 -71 -39 -82 -37 -5
1 -8 -3 -8 -9 0 -5 -4 -7 -10 -4 -5 3 -10 1 -10 -4 0 -6 -7 -11 -15 -11 -8 0
-15 -4 -15 -10 0 -5 -5 -10 -11 -10 -5 0 -37 -18 -70 -40 -32 -23 -59 -38 -59
-35 0 3 -6 1 -13 -5 -41 -35 -167 -130 -172 -130 -3 0 -17 -11 -31 -25 -29
-29 -49 -33 -36 -7 5 9 8 25 7 35 -2 9 1 17 6 17 5 0 8 3 7 8 -4 18 23 84 51
126 18 25 78 93 134 151 129 132 146 153 170 208 6 15 15 27 20 27 4 0 15 16
23 35 8 19 19 35 26 35 6 0 8 3 5 6 -4 4 10 28 31 54 20 26 44 58 52 70 28 43
113 134 210 226 14 13 31 24 38 24 6 0 12 5 12 10 0 6 21 20 48 33 26 12 49
25 50 30 2 4 10 7 18 7 8 0 14 4 14 9 0 5 11 12 25 15 14 4 25 11 25 17 0 6 4
8 9 4 5 -3 12 -1 16 5 4 6 11 8 16 5 5 -4 9 -1 9 4 0 6 6 11 14 11 7 0 25 9
40 21 14 11 26 17 26 14 0 -4 6 -2 13 4 8 6 17 8 20 4 4 -3 7 -1 7 5 0 7 7 12
15 12 9 0 30 8 48 17 18 9 37 18 42 19 28 8 100 36 105 42 7 10 40 13 178 16
67 2 125 -1 128 -5 2 -4 14 -5 27 -3 12 3 40 7 62 9 64 4 155 26 155 36 0 6 4
8 9 4 5 -3 12 -1 16 5 4 6 10 8 14 6 4 -3 13 -1 21 4 11 7 79 7 148 -1z m-868
-1270 c0 -4 61 -6 135 -6 74 0 135 3 135 7 0 6 24 5 153 -3 15 -1 27 -5 27 -8
0 -7 59 -23 73 -20 4 0 7 -5 7 -13 0 -9 -22 -18 -65 -27 -36 -7 -65 -15 -65
-19 0 -3 -10 -7 -22 -8 -36 -2 -72 -9 -88 -15 -8 -3 -42 -10 -75 -16 -33 -6
-71 -14 -85 -17 -14 -3 -37 -5 -52 -6 -16 0 -28 -3 -28 -7 0 -4 -12 -8 -27 -8
-16 -1 -53 -6 -83 -12 -62 -12 -119 -20 -170 -21 -19 -1 -42 -4 -50 -7 -46
-18 -755 -20 -755 -3 0 1 -18 4 -40 6 -86 7 -136 17 -132 27 3 9 23 17 55 19
6 1 12 5 12 10 0 4 3 7 8 6 9 -3 114 23 127 31 6 3 18 6 28 7 9 1 18 2 20 4 3
2 15 5 107 25 41 9 84 19 95 22 11 3 34 6 50 7 17 1 35 4 40 8 6 3 25 5 43 4
17 -1 32 1 32 6 0 4 19 8 43 8 24 0 47 3 50 7 4 4 26 6 50 6 23 -1 47 2 54 6
15 8 393 8 393 0z"/>
<path d="M3460 2981 c0 -5 16 -15 35 -22 19 -7 35 -17 35 -22 0 -4 5 -5 10 -2
6 3 10 1 10 -4 0 -6 3 -10 8 -9 8 2 65 -24 72 -33 3 -3 21 -14 40 -24 39 -19
132 -87 170 -123 l25 -24 -45 7 c-38 6 -144 55 -160 75 -3 3 -27 17 -55 30
-27 14 -52 28 -55 32 -3 4 -19 9 -35 12 -17 2 -30 5 -30 6 0 3 -6 4 -82 16
-47 7 -133 -3 -133 -16 0 -5 9 -7 20 -5 11 2 20 0 20 -5 0 -5 8 -8 18 -8 9 1
35 -7 57 -17 22 -10 45 -18 50 -19 21 -2 105 -48 105 -57 0 -6 4 -8 9 -4 5 3
18 -6 29 -20 11 -14 24 -25 29 -25 5 0 24 -16 43 -35 18 -19 36 -32 41 -30 4
3 9 -2 13 -10 3 -8 11 -15 17 -15 7 0 19 -6 28 -14 9 -8 28 -26 43 -39 15 -14
29 -23 31 -21 2 3 9 -2 16 -9 8 -11 6 -19 -8 -36 -11 -13 -26 -23 -33 -25 -7
-1 -18 -5 -24 -8 -13 -9 -201 -3 -234 7 -14 4 -35 7 -47 8 -13 1 -23 4 -23 8
0 3 -33 10 -72 14 -40 3 -77 10 -83 13 -5 3 -28 7 -50 9 -22 1 -57 4 -78 6
-44 6 -59 -8 -18 -16 16 -3 36 -13 45 -22 9 -9 16 -14 16 -11 0 3 34 -12 75
-34 41 -22 75 -37 75 -34 0 3 7 -1 15 -8 33 -30 45 -38 45 -32 0 3 6 2 13 -4
7 -6 26 -14 42 -18 46 -12 262 -16 282 -6 31 15 67 0 68 -30 2 -22 -3 -28 -29
-34 -17 -5 -34 -7 -38 -6 -5 1 -8 -2 -8 -7 0 -6 -9 -8 -20 -6 -11 2 -22 0 -25
-5 -3 -5 -12 -7 -20 -3 -8 3 -15 1 -15 -4 0 -5 -20 -14 -43 -20 -39 -11 -128
-51 -224 -101 -34 -18 -48 -50 -15 -37 9 4 26 8 37 9 11 1 25 5 32 9 6 4 72
12 145 17 161 12 196 16 225 23 26 7 46 -10 69 -56 25 -49 35 -59 48 -48 7 6
49 9 94 8 45 -1 82 1 82 4 0 3 46 9 102 11 64 3 103 9 106 17 2 6 8 8 13 5 6
-3 17 0 26 8 9 7 18 12 19 11 2 -1 19 4 38 12 20 8 40 15 46 15 5 0 10 5 10
11 0 5 5 7 10 4 6 -3 10 -1 10 4 0 6 6 11 14 11 8 0 16 3 18 8 4 8 48 35 98
60 19 9 37 19 40 22 3 3 24 14 47 24 23 10 65 40 92 67 45 43 54 58 50 85 0 4
5 10 11 14 20 12 -16 62 -73 101 -27 19 -66 48 -86 66 -20 17 -39 29 -43 27
-5 -3 -8 0 -8 5 0 6 -6 11 -13 11 -7 0 -22 8 -33 18 -10 9 -28 19 -39 20 -11
2 -21 8 -23 13 -2 5 -7 9 -12 9 -4 0 -25 8 -46 17 -22 9 -43 18 -49 20 -94 28
-123 35 -137 35 -10 -1 -18 3 -18 8 0 4 -8 7 -17 5 -10 -1 -22 0 -28 4 -5 3
-17 6 -25 7 -8 0 -22 3 -30 6 -8 4 -37 12 -65 18 -27 7 -59 14 -70 17 -11 2
-29 6 -40 9 -95 19 -122 25 -135 30 -8 4 -26 8 -40 9 -14 1 -36 5 -50 9 -38
10 -172 36 -197 38 -13 2 -23 5 -23 8 0 3 -17 6 -37 7 -21 0 -50 3 -65 7 -16
4 -28 2 -28 -3z m1042 -428 c46 -55 -12 -138 -74 -107 -36 19 -53 50 -37 70 6
8 9 14 5 14 -3 0 2 9 11 20 22 25 74 26 95 3z"/>
<path d="M4020 1961 c-8 -6 -18 -7 -22 -5 -14 9 -43 -20 -43 -42 1 -35 59
-137 87 -153 16 -9 28 -20 28 -24 0 -5 5 -5 10 -2 6 3 10 1 10 -6 0 -7 3 -9 6
-6 4 4 24 -7 44 -23 21 -17 41 -30 44 -30 11 0 6 56 -6 68 -7 7 -8 12 -3 12 4
0 0 9 -9 19 -17 19 -17 20 5 17 27 -4 49 -11 97 -32 33 -14 33 -14 26 8 -10
32 -37 67 -51 68 -7 0 -13 5 -13 11 0 6 -8 9 -17 7 -10 -2 -22 0 -28 4 -53 43
-68 65 -74 108 -1 13 -71 13 -91 1z"/>
</g>
</svg>
