<svg id="svg" xmlns="http://www.w3.org/2000/svg" xmlns:xlink="http://www.w3.org/1999/xlink" width="400" height="59.835452505609574" viewBox="0, 0, 400,59.835452505609574"><g id="svgg"><path id="path0" d="M60.135 6.175 C 58.025 6.927,57.601 6.972,53.048 6.928 C 47.373 6.873,46.734 7.041,39.598 10.465 C 30.831 14.672,27.490 17.749,21.740 26.913 C 21.109 27.918,19.064 30.346,17.194 32.308 C 13.490 36.193,12.791 37.541,12.366 41.614 C 12.166 43.522,12.206 43.571,14.263 43.960 C 24.886 45.970,39.094 45.085,54.877 41.430 C 57.334 40.861,59.404 40.456,59.479 40.531 C 59.761 40.813,58.559 44.789,57.572 46.841 C 56.248 49.594,56.268 50.091,57.754 51.505 C 59.085 52.771,59.752 53.019,59.237 52.057 C 58.785 51.212,59.177 51.308,61.046 52.498 C 63.218 53.882,64.147 53.376,62.485 51.714 L 61.843 51.073 62.709 51.283 C 63.185 51.399,64.080 51.752,64.697 52.069 C 65.767 52.619,65.819 52.620,65.819 52.104 C 65.819 51.324,64.567 50.262,63.647 50.262 C 61.076 50.262,60.923 48.678,63.170 45.318 C 65.813 41.366,65.879 40.086,63.563 37.658 C 61.513 35.509,60.506 33.388,60.313 30.815 L 60.167 28.871 60.552 30.366 C 62.962 39.736,74.967 43.298,91.250 39.475 L 93.911 38.850 95.763 36.404 C 96.781 35.058,97.537 34.159,97.442 34.405 C 97.347 34.652,96.647 36.380,95.887 38.244 C 93.550 43.981,93.878 45.748,97.681 47.894 C 99.172 48.736,99.327 48.919,99.327 49.842 C 99.327 50.402,99.441 50.860,99.580 50.860 C 99.997 50.860,100.823 49.802,100.823 49.266 C 100.823 48.605,101.030 48.635,102.586 49.524 C 103.309 49.938,103.963 50.213,104.040 50.136 C 104.244 49.932,102.988 48.251,102.236 47.724 C 101.598 47.277,101.603 47.270,102.541 47.270 C 103.181 47.270,103.842 47.575,104.552 48.199 C 105.768 49.266,105.834 49.181,105.024 47.594 C 104.420 46.410,103.936 46.075,102.818 46.070 C 101.780 46.066,99.188 44.726,98.484 43.831 C 96.879 41.790,100.211 36.150,104.133 34.268 C 106.040 33.353,106.089 33.301,105.818 32.489 C 105.391 31.206,102.439 32.024,101.319 33.734 L 100.782 34.555 100.924 33.283 C 101.001 32.584,100.971 32.012,100.857 32.012 C 100.742 32.012,98.582 32.356,96.057 32.776 C 93.532 33.196,91.047 33.499,90.535 33.449 L 89.604 33.358 91.575 31.414 C 92.659 30.344,94.373 28.984,95.383 28.391 C 97.171 27.342,97.423 26.926,96.270 26.926 C 95.961 26.926,95.311 26.721,94.826 26.470 C 94.014 26.050,93.852 26.062,92.758 26.620 C 91.144 27.444,91.051 27.391,91.977 26.178 C 92.416 25.602,92.650 25.131,92.498 25.131 C 91.662 25.131,90.044 26.133,89.496 26.990 C 88.642 28.323,88.604 27.193,89.455 25.797 C 89.784 25.258,90.052 24.765,90.052 24.701 C 90.052 24.564,87.280 25.609,86.084 26.197 C 84.467 26.992,86.082 25.046,88.059 23.816 C 89.238 23.083,89.013 23.037,86.647 23.528 C 84.156 24.044,84.000 23.958,85.559 22.927 C 86.220 22.489,86.761 22.059,86.761 21.972 C 86.761 21.757,84.647 22.151,83.994 22.488 C 83.305 22.844,83.340 22.539,84.154 21.092 C 85.399 18.879,91.466 18.142,96.634 19.575 C 97.539 19.826,99.088 20.119,100.075 20.225 L 101.870 20.420 100.678 19.373 C 99.681 18.498,99.379 18.375,98.831 18.625 C 98.091 18.962,94.944 18.662,94.677 18.229 C 94.582 18.076,94.786 17.951,95.130 17.951 C 96.004 17.951,97.970 17.092,97.704 16.826 C 97.584 16.706,96.250 16.631,94.741 16.660 L 91.997 16.712 93.568 16.241 C 95.425 15.684,95.550 15.361,94.016 15.079 C 93.399 14.965,92.822 14.761,92.733 14.625 C 91.471 12.697,76.749 7.129,72.700 7.049 C 70.359 7.003,69.081 6.820,67.683 6.330 C 64.671 5.276,62.768 5.237,60.135 6.175 M67.464 7.809 C 68.841 8.314,69.877 8.461,71.912 8.442 C 75.545 8.407,78.427 9.283,85.190 12.479 C 88.193 13.898,90.603 15.107,90.545 15.164 C 90.487 15.222,87.290 15.808,83.440 16.465 C 65.985 19.447,54.990 22.213,41.343 27.055 C 28.777 31.515,23.075 34.347,16.525 39.385 C 13.589 41.642,13.756 41.598,14.111 40.019 C 14.668 37.538,15.541 36.172,18.611 32.971 C 20.305 31.206,22.040 29.225,22.468 28.568 C 25.881 23.334,26.803 22.031,28.425 20.150 C 31.846 16.186,36.034 13.471,44.131 9.971 L 47.420 8.549 52.697 8.481 C 57.505 8.420,58.158 8.347,60.027 7.658 C 62.487 6.752,64.700 6.797,67.464 7.809 M142.109 8.511 C 142.109 8.585,139.955 18.778,137.322 31.161 C 134.690 43.544,132.536 53.721,132.536 53.775 C 132.536 53.829,133.840 53.835,135.434 53.788 L 138.333 53.702 139.392 48.093 L 140.450 42.483 145.149 42.483 C 149.366 42.483,149.863 42.537,150.000 43.007 C 150.084 43.295,150.500 45.482,150.924 47.868 C 151.348 50.254,151.771 52.577,151.863 53.029 L 152.030 53.852 154.946 53.852 L 157.862 53.852 154.038 35.976 C 151.935 26.144,149.858 16.417,149.423 14.361 C 148.988 12.304,148.505 10.116,148.351 9.499 L 148.070 8.377 145.089 8.377 C 143.450 8.377,142.109 8.437,142.109 8.511 M208.527 31.114 L 208.527 53.852 211.518 53.852 L 214.510 53.852 214.510 31.114 L 214.510 8.377 211.518 8.377 L 208.527 8.377 208.527 31.114 M262.678 31.114 L 262.678 53.852 265.520 53.852 L 268.362 53.852 268.362 31.114 L 268.362 8.377 265.520 8.377 L 262.678 8.377 262.678 31.114 M285.714 10.770 L 285.714 13.164 289.454 13.164 L 293.194 13.164 293.194 33.508 L 293.194 53.852 296.335 53.852 L 299.476 53.852 299.476 33.508 L 299.476 13.164 303.216 13.164 L 306.956 13.164 306.956 10.770 L 306.956 8.377 296.335 8.377 L 285.714 8.377 285.714 10.770 M358.714 31.114 L 358.714 53.852 361.705 53.852 L 364.697 53.852 364.697 31.114 L 364.697 8.377 361.705 8.377 L 358.714 8.377 358.714 31.114 M99.028 11.525 C 102.018 13.137,104.823 15.058,105.661 16.067 C 106.241 16.767,104.330 16.304,102.618 15.331 C 98.622 13.060,97.514 12.565,95.702 12.240 C 94.591 12.041,93.213 11.982,92.560 12.105 L 91.399 12.325 93.792 13.137 C 96.853 14.177,97.709 14.637,99.834 16.388 C 100.789 17.175,102.479 18.481,103.590 19.289 C 105.852 20.935,105.850 20.931,104.985 21.714 C 104.113 22.503,100.622 22.652,97.766 22.022 C 95.318 21.482,89.962 20.648,88.922 20.645 C 88.547 20.644,90.297 21.687,92.811 22.962 L 97.382 25.280 101.496 25.270 C 105.564 25.259,105.610 25.267,105.610 25.931 C 105.610 26.473,105.362 26.666,104.338 26.923 C 100.767 27.819,93.865 30.838,94.328 31.301 C 94.401 31.374,95.118 31.286,95.921 31.105 C 96.725 30.924,98.930 30.652,100.823 30.501 C 102.715 30.351,104.757 30.148,105.360 30.051 C 106.411 29.881,106.489 29.931,107.263 31.251 C 107.820 32.201,108.223 32.586,108.560 32.491 C 108.830 32.416,110.733 32.261,112.790 32.148 C 117.225 31.903,119.217 31.351,122.513 29.453 C 123.829 28.695,125.782 27.627,126.851 27.079 C 129.900 25.518,131.759 23.183,131.033 21.827 C 130.089 20.064,123.249 15.977,119.372 14.860 C 114.439 13.438,100.964 10.473,97.382 10.021 L 95.886 9.832 99.028 11.525 M246.223 16.604 L 246.223 21.242 244.577 21.242 L 242.932 21.242 242.932 23.186 L 242.932 25.131 244.559 25.131 L 246.186 25.131 246.279 37.023 L 246.372 48.915 247.270 50.711 C 248.665 53.500,251.053 54.472,255.376 54.010 L 257.292 53.804 257.291 51.659 L 257.289 49.514 255.485 49.495 C 252.204 49.460,252.371 50.128,252.271 36.641 L 252.186 25.131 254.739 25.131 L 257.292 25.131 257.292 23.186 L 257.292 21.242 254.749 21.242 L 252.206 21.242 252.206 16.604 L 252.206 11.967 249.215 11.967 L 246.223 11.967 246.223 16.604 M147.190 27.741 C 148.180 33.043,148.990 37.520,148.990 37.689 C 148.990 37.882,147.574 37.996,145.149 37.996 L 141.308 37.996 143.050 28.497 C 144.925 18.270,145.118 17.343,145.282 17.801 C 145.341 17.966,146.199 22.439,147.190 27.741 M121.705 20.404 C 122.344 21.043,122.131 22.381,121.304 22.923 C 119.796 23.910,118.212 22.292,119.204 20.778 C 119.729 19.977,121.077 19.776,121.705 20.404 M190.197 21.249 C 184.871 22.594,183.396 26.129,183.396 37.547 C 183.396 50.459,185.442 53.975,192.969 53.994 C 200.583 54.014,202.094 51.289,202.094 37.547 C 202.094 27.662,201.960 26.745,200.107 24.032 C 198.488 21.660,193.791 20.341,190.197 21.249 M226.996 21.249 C 221.670 22.594,220.194 26.129,220.194 37.547 C 220.194 50.459,222.241 53.975,229.768 53.994 C 237.381 54.014,238.893 51.289,238.893 37.547 C 238.893 27.662,238.758 26.745,236.906 24.032 C 235.287 21.660,230.590 20.341,226.996 21.249 M316.171 21.342 C 310.847 22.848,309.861 25.575,310.008 38.381 C 310.117 47.937,310.263 48.807,312.167 51.303 C 315.182 55.256,323.807 54.944,326.602 50.782 C 329.386 46.636,329.386 28.458,326.602 24.312 C 324.775 21.591,320.047 20.245,316.171 21.342 M340.106 21.361 C 334.805 22.788,333.795 25.576,333.942 38.381 C 334.052 47.937,334.197 48.807,336.101 51.303 C 339.116 55.256,347.741 54.944,350.536 50.782 C 353.181 46.844,353.337 29.009,350.765 24.621 C 348.996 21.602,344.416 20.201,340.106 21.361 M375.705 21.362 C 368.306 23.353,368.256 31.687,375.604 37.931 C 381.763 43.165,382.349 43.898,382.349 46.381 C 382.349 48.531,381.246 49.664,379.155 49.662 C 376.647 49.660,375.638 48.717,374.635 45.438 L 374.121 43.757 371.877 44.430 L 369.634 45.104 369.689 46.324 C 369.884 50.613,373.626 53.936,378.310 53.979 C 384.288 54.035,387.278 51.350,387.283 45.924 C 387.286 41.867,386.482 40.567,380.670 35.225 C 375.255 30.248,374.546 28.994,375.977 26.918 C 378.230 23.650,382.635 25.974,382.646 30.437 L 382.648 31.106 384.518 30.400 L 386.387 29.694 386.343 28.352 C 386.171 23.227,381.116 19.905,375.705 21.362 M159.867 21.472 C 159.946 21.598,161.565 25.096,163.466 29.245 L 166.923 36.788 163.342 45.148 C 161.372 49.746,159.761 53.585,159.761 53.680 C 159.761 53.774,160.958 53.852,162.421 53.852 L 165.082 53.852 167.240 48.467 C 168.427 45.505,169.489 43.082,169.600 43.082 C 169.710 43.082,170.926 45.505,172.301 48.467 L 174.801 53.852 177.573 53.852 L 180.345 53.852 176.635 45.793 C 174.594 41.361,172.924 37.620,172.924 37.480 C 172.924 37.340,174.540 33.696,176.515 29.381 C 178.489 25.067,180.105 21.470,180.105 21.389 C 180.105 21.308,178.853 21.242,177.323 21.242 L 174.542 21.242 173.327 24.159 C 172.659 25.763,171.735 28.052,171.274 29.245 C 170.187 32.060,170.366 32.205,167.671 26.328 L 165.340 21.242 162.533 21.242 C 160.989 21.242,159.789 21.345,159.867 21.472 M195.221 26.214 C 196.307 27.386,196.410 28.395,196.410 37.846 C 196.410 48.867,196.176 49.663,192.943 49.663 C 189.700 49.663,189.379 48.565,189.381 37.489 C 189.383 28.673,189.543 27.334,190.737 26.140 C 191.793 25.083,194.210 25.124,195.221 26.214 M232.020 26.214 C 233.106 27.386,233.209 28.395,233.209 37.846 C 233.209 48.867,232.975 49.663,229.742 49.663 C 226.499 49.663,226.177 48.565,226.180 37.489 C 226.181 28.673,226.341 27.334,227.535 26.140 C 228.592 25.083,231.009 25.124,232.020 26.214 M321.034 25.738 C 322.565 26.558,322.663 27.265,322.663 37.547 C 322.663 49.171,322.523 49.663,319.222 49.663 C 315.921 49.663,315.782 49.171,315.782 37.547 C 315.782 27.331,315.877 26.612,317.352 25.753 C 318.036 25.355,320.300 25.345,321.034 25.738 M344.968 25.738 C 346.499 26.558,346.597 27.265,346.597 37.547 C 346.597 49.171,346.457 49.663,343.156 49.663 C 339.856 49.663,339.716 49.171,339.716 37.547 C 339.716 27.331,339.811 26.612,341.286 25.753 C 341.971 25.355,344.234 25.345,344.968 25.738 M109.274 35.039 C 107.245 35.625,108.557 38.550,111.814 40.697 L 113.987 42.129 113.987 41.326 C 113.987 40.884,113.764 40.204,113.491 39.815 L 112.996 39.108 114.165 39.322 C 114.807 39.439,115.648 39.739,116.034 39.988 C 116.708 40.422,116.727 40.412,116.522 39.741 C 116.208 38.711,115.536 38.060,114.404 37.686 C 113.285 37.317,112.191 36.119,112.191 35.263 C 112.191 34.632,111.002 34.541,109.274 35.039 M56.395 38.778 L 57.891 39.301 56.395 39.695 C 53.492 40.459,44.915 42.165,40.658 42.825 C 33.660 43.909,14.660 43.661,14.660 42.485 C 14.660 41.890,25.677 39.303,31.713 38.481 C 36.478 37.832,54.304 38.046,56.395 38.778 " stroke="none" fill="#000000" fill-rule="evenodd"></path></g></svg>